<svg width="11" height="22" viewBox="0 0 11 22" fill="none" xmlns="http://www.w3.org/2000/svg">
<path d="M4.66667 16.8333C4.66667 17.8417 3.84167 18.6667 2.83333 18.6667C1.825 18.6667 1 17.8417 1 16.8333C1 15.825 1.825 15 2.83333 15C3.84167 15 4.66667 15.825 4.66667 16.8333ZM2.83333 9.5C1.825 9.5 1 10.325 1 11.3333C1 12.3417 1.825 13.1667 2.83333 13.1667C3.84167 13.1667 4.66667 12.3417 4.66667 11.3333C4.66667 10.325 3.84167 9.5 2.83333 9.5ZM2.83333 4C1.825 4 1 4.825 1 5.83333C1 6.84167 1.825 7.66667 2.83333 7.66667C3.84167 7.66667 4.66667 6.84167 4.66667 5.83333C4.66667 4.825 3.84167 4 2.83333 4ZM8.33333 7.66667C9.34167 7.66667 10.1667 6.84167 10.1667 5.83333C10.1667 4.825 9.34167 4 8.33333 4C7.325 4 6.5 4.825 6.5 5.83333C6.5 6.84167 7.325 7.66667 8.33333 7.66667ZM8.33333 9.5C7.325 9.5 6.5 10.325 6.5 11.3333C6.5 12.3417 7.325 13.1667 8.33333 13.1667C9.34167 13.1667 10.1667 12.3417 10.1667 11.3333C10.1667 10.325 9.34167 9.5 8.33333 9.5ZM8.33333 15C7.325 15 6.5 15.825 6.5 16.8333C6.5 17.8417 7.325 18.6667 8.33333 18.6667C9.34167 18.6667 10.1667 17.8417 10.1667 16.8333C10.1667 15.825 9.34167 15 8.33333 15Z" fill="black" fill-opacity="0.16"/>
</svg>
