<svg width="24" height="24" viewBox="0 0 24 24" fill="none" xmlns="http://www.w3.org/2000/svg">
<path d="M12.4898 16.4973C12.2732 16.4978 12.0633 16.4049 11.8965 16.2346L6.33486 10.5233C6.14556 10.3293 6.02652 10.0507 6.00392 9.7487C5.98132 9.44665 6.05702 9.14592 6.21436 8.91265C6.3717 8.67938 6.59779 8.53268 6.8429 8.50483C7.08801 8.47699 7.33205 8.57027 7.52136 8.76416L12.4898 13.8815L17.4582 8.94692C17.553 8.85203 17.6621 8.78118 17.7793 8.73842C17.8964 8.69566 18.0192 8.68185 18.1406 8.69777C18.2621 8.71369 18.3798 8.75904 18.487 8.8312C18.5942 8.90335 18.6887 9.00092 18.7652 9.11826C18.8501 9.23571 18.9144 9.37349 18.9541 9.52299C18.9938 9.67251 19.008 9.83049 18.9957 9.98698C18.9836 10.1436 18.9453 10.2954 18.8833 10.4328C18.8213 10.5703 18.7369 10.6905 18.6354 10.786L13.0737 16.3031C12.9022 16.4465 12.6966 16.5148 12.4898 16.4973Z" fill="white"/>
</svg>
