<svg width="14" height="14" viewBox="0 0 14 14" fill="none" xmlns="http://www.w3.org/2000/svg">
<g clip-path="url(#clip0_2_39)">
<g filter="url(#filter0_d_2_39)">
<path d="M4.8084 4.28167L1.08674 4.82125L1.02082 4.83467C0.921033 4.86116 0.830066 4.91366 0.757206 4.9868C0.684346 5.05995 0.632204 5.15112 0.606105 5.25101C0.580006 5.3509 0.580885 5.45592 0.608652 5.55536C0.636418 5.6548 0.690079 5.74508 0.764152 5.817L3.46032 8.44142L2.82449 12.1485L2.8169 12.2127C2.81079 12.3159 2.83222 12.4188 2.879 12.511C2.92577 12.6032 2.99621 12.6814 3.0831 12.7374C3.16999 12.7934 3.2702 12.8253 3.37349 12.8299C3.47677 12.8345 3.57941 12.8115 3.6709 12.7633L6.9994 11.0133L10.3203 12.7633L10.3787 12.7902C10.4749 12.8281 10.5796 12.8397 10.6818 12.8239C10.7841 12.808 10.8803 12.7652 10.9606 12.6999C11.0409 12.6346 11.1023 12.5491 11.1386 12.4522C11.175 12.3553 11.1849 12.2505 11.1673 12.1485L10.5309 8.44142L13.2282 5.81642L13.2737 5.76683C13.3387 5.68678 13.3813 5.59093 13.3972 5.48905C13.4131 5.38716 13.4017 5.28289 13.3642 5.18684C13.3267 5.0908 13.2644 5.00642 13.1836 4.9423C13.1028 4.87818 13.0065 4.83661 12.9045 4.82183L9.18282 4.28167L7.51915 0.910001C7.47101 0.812312 7.39649 0.730051 7.30401 0.672528C7.21154 0.615005 7.10481 0.584518 6.9959 0.584518C6.887 0.584518 6.78027 0.615005 6.68779 0.672528C6.59532 0.730051 6.52079 0.812312 6.47265 0.910001L4.8084 4.28167Z" fill="#F9BC26"/>
</g>
</g>
<defs>
<filter id="filter0_d_2_39" x="0.587158" y="0.584518" width="12.8171" height="13.2462" filterUnits="userSpaceOnUse" color-interpolation-filters="sRGB">
<feFlood flood-opacity="0" result="BackgroundImageFix"/>
<feColorMatrix in="SourceAlpha" type="matrix" values="0 0 0 0 0 0 0 0 0 0 0 0 0 0 0 0 0 0 127 0" result="hardAlpha"/>
<feOffset dy="1"/>
<feComposite in2="hardAlpha" operator="out"/>
<feColorMatrix type="matrix" values="0 0 0 0 0 0 0 0 0 0 0 0 0 0 0 0 0 0 1 0"/>
<feBlend mode="normal" in2="BackgroundImageFix" result="effect1_dropShadow_2_39"/>
<feBlend mode="normal" in="SourceGraphic" in2="effect1_dropShadow_2_39" result="shape"/>
</filter>
<clipPath id="clip0_2_39">
<rect width="14" height="14" fill="white"/>
</clipPath>
</defs>
</svg>
