<svg width="40" height="31" viewBox="0 0 40 31" fill="none" xmlns="http://www.w3.org/2000/svg">
<path d="M36.9655 25.5172V23.1724H33.1035V18.069H27.8621V15.7241H34.3448V18.069H36.8276V20.4138H39.4483V15.7241H37.1035V13.3793H33.2414V8.13793H30.7586V5.7931H26.2069V4.82759H28.6897V2.48276H31.1724V0H26.2069V2.34483H23.7242V5.7931H16.2759V2.34483H13.7931V0H8.8276V2.48276H11.3104V4.82759H13.7931V5.7931H9.51725V8.13793H6.89656V13.2414H3.03449V15.5862H0.689667V20.2759H3.31036V17.931H5.79311V15.5862H12.2759V17.931H6.89656V23.0345H3.03449V25.3793H0.689667V30.3448H3.31036V28H5.79311V25.6552H9.65518V28H30.6207V25.6552H34.4828V28H36.9655V30.3448H39.4483V25.5172H36.9655ZM23.7242 8.13793H25.7931V10.2069H23.7242V8.13793ZM17.2414 13.7931H22.6207V14.4828H17.2414V13.7931ZM14.2069 8.13793H16.2759V10.2069H14.2069V8.13793ZM14.8966 24.9655H13.1035V20.6897H14.8966V24.9655ZM17.931 24.9655H16.1379V20.6897H17.931V24.9655ZM20.9655 24.9655H19.0345V20.6897H20.9655V24.9655ZM22.069 24.9655V20.6897H24V24.9655H22.069ZM26.8966 24.9655H25.1035V20.6897H26.8966V24.9655Z" fill="#20243F"/>
<path d="M16.2759 8.13793H14.2069V10.2069H16.2759V8.13793Z" fill="white"/>
<path d="M25.7931 8.13793H23.7242V10.2069H25.7931V8.13793Z" fill="white"/>
<path d="M22.6207 13.7931H17.2414V14.4828H22.6207V13.7931Z" fill="white"/>
<path d="M14.8966 20.6897H13.1035V24.9655H14.8966V20.6897Z" fill="white"/>
<path d="M17.7931 20.6897H16V24.9655H17.7931V20.6897Z" fill="white"/>
<path d="M20.9655 20.6897H19.0345V24.9655H20.9655V20.6897Z" fill="white"/>
<path d="M24 20.6897H22.069V24.9655H24V20.6897Z" fill="white"/>
<path d="M26.8966 20.6897H25.1035V24.9655H26.8966V20.6897Z" fill="white"/>
</svg>
